<?xml version="1.0" encoding="utf-8"?>
<!-- Generator: Adobe Illustrator 17.0.0, SVG Export Plug-In . SVG Version: 6.00 Build 0)  -->
<!DOCTYPE svg PUBLIC "-//W3C//DTD SVG 1.1//EN" "http://www.w3.org/Graphics/SVG/1.1/DTD/svg11.dtd">
<svg version="1.1" id="Capa_1" xmlns="http://www.w3.org/2000/svg" xmlns:xlink="http://www.w3.org/1999/xlink" x="0px" y="0px"
	 width="500px" height="500px" viewBox="0 0 500 500" enable-background="new 0 0 500 500" xml:space="preserve">
<g>
	<path fill="none" stroke="#F7F7F7" stroke-width="15" stroke-miterlimit="10" d="M191.017,375.995
		c-21.514,0-38.957,17.433-38.957,38.939c0,21.523,17.442,38.957,38.957,38.957c21.506,0,38.948-17.434,38.948-38.957
		C229.965,393.43,212.522,375.995,191.017,375.995z"/>
	<path fill="none" stroke="#F7F7F7" stroke-width="15" stroke-miterlimit="10" d="M361.019,375.995
		c-21.523,0-38.957,17.433-38.957,38.939c0,21.523,17.434,38.957,38.957,38.957c21.507,0,38.958-17.434,38.958-38.957
		C399.977,393.43,382.526,375.995,361.019,375.995z"/>
	<path fill="none" stroke="#F7F7F7" stroke-width="15" stroke-miterlimit="10" d="M458.871,162.477l-215.775-0.018
		c-10.789,0-19.535,8.746-19.535,19.535s8.746,19.535,19.535,19.535l190.908-0.009l-12.111,40.985l-194.095,0.041
		c-10.009,0-18.123,8.114-18.123,18.123c0,10.01,8.114,18.123,18.123,18.123l183.367,0.072l-11.385,38.332H181.043L166.53,201.503
		L152.673,88.795c-1.128-8.918-7.594-16.241-16.305-18.463L44.104,46.795c-11.714-2.99-23.632,4.085-26.62,15.799
		s4.085,23.633,15.799,26.62l77.828,19.854l30.308,227.449c0,0,1.031,26.533,25.128,26.533h241.777
		c20.258,0,24.175-21.125,24.175-21.125l47.917-142.31C480.414,199.596,494.622,162.477,458.871,162.477z"/>
</g>
</svg>
