<?xml version="1.0" encoding="utf-8"?>
<!-- Generator: Adobe Illustrator 17.0.0, SVG Export Plug-In . SVG Version: 6.00 Build 0)  -->
<!DOCTYPE svg PUBLIC "-//W3C//DTD SVG 1.1//EN" "http://www.w3.org/Graphics/SVG/1.1/DTD/svg11.dtd">
<svg version="1.1" id="Layer_1" xmlns="http://www.w3.org/2000/svg" xmlns:xlink="http://www.w3.org/1999/xlink" x="0px" y="0px"
	 width="512px" height="512px" viewBox="0 0 512 512" enable-background="new 0 0 512 512" xml:space="preserve">
<path fill="#85C4B9" d="M402.98,250.517c-6.904,0-12.5,5.597-12.5,12.5v146.447H83.554V102.536h246.571
	c6.904,0,12.5-5.597,12.5-12.5s-5.596-12.5-12.5-12.5H71.054c-6.903,0-12.5,5.597-12.5,12.5v331.928c0,6.903,5.597,12.5,12.5,12.5
	H402.98c6.903,0,12.5-5.597,12.5-12.5V263.017C415.48,256.113,409.884,250.517,402.98,250.517z"/>
<path fill="#85C4B9" d="M449.785,85.758c-4.882-4.881-12.796-4.881-17.678,0L228.511,289.354l-50.584-50.584
	c-4.882-4.881-12.796-4.881-17.678,0c-4.881,4.882-4.881,12.796,0,17.678l59.423,59.423c2.441,2.44,5.64,3.661,8.839,3.661
	s6.398-1.221,8.839-3.661l212.435-212.435C454.667,98.554,454.667,90.64,449.785,85.758z"/>
</svg>
