<?xml version="1.0" encoding="utf-8"?>
<!-- Generator: Adobe Illustrator 17.0.0, SVG Export Plug-In . SVG Version: 6.00 Build 0)  -->
<!DOCTYPE svg PUBLIC "-//W3C//DTD SVG 1.1//EN" "http://www.w3.org/Graphics/SVG/1.1/DTD/svg11.dtd">
<svg version="1.1" id="Layer_1" xmlns="http://www.w3.org/2000/svg" xmlns:xlink="http://www.w3.org/1999/xlink" x="0px" y="0px"
	 width="512px" height="512px" viewBox="1489.78 646.791 512 512" enable-background="new 1489.78 646.791 512 512"
	 xml:space="preserve">
<g id="check-circle-outline">
	<path fill="none" stroke="#85C4B9" stroke-width="15" stroke-miterlimit="10" d="M1644.096,855.669l-34.722,34.721l111.605,111.605
		l248.011-248.011l-34.722-34.721l-213.289,213.289L1644.096,855.669z M1944.188,902.791c0,109.125-89.284,198.409-198.408,198.409
		s-198.408-89.284-198.408-198.409s89.284-198.409,198.408-198.409c19.841,0,37.202,2.48,54.562,7.44l39.682-39.682
		c-29.761-9.92-62.003-17.361-94.244-17.361c-136.406,0-248.011,111.605-248.011,248.011s111.605,248.011,248.011,248.011
		s248.011-111.605,248.011-248.011H1944.188z"/>
</g>
</svg>
