<?xml version="1.0" encoding="utf-8"?>
<!-- Generator: Adobe Illustrator 17.0.0, SVG Export Plug-In . SVG Version: 6.00 Build 0)  -->
<!DOCTYPE svg PUBLIC "-//W3C//DTD SVG 1.1//EN" "http://www.w3.org/Graphics/SVG/1.1/DTD/svg11.dtd">
<svg version="1.1" id="Capa_1" xmlns="http://www.w3.org/2000/svg" xmlns:xlink="http://www.w3.org/1999/xlink" x="0px" y="0px"
	 width="38px" height="32.408px" viewBox="0 0 38 32.408" enable-background="new 0 0 38 32.408" xml:space="preserve">
<g id="_x33_43._Playlist">
	<g>
		<path fill="none" stroke="#F7F7F7" stroke-miterlimit="10" d="M7.251,4.119L2.986,1.453c-0.867-0.542-1.57-0.153-1.57,0.869v5.553
			c0,1.022,0.702,1.411,1.57,0.87L7.251,6.08C8.118,5.538,8.118,4.659,7.251,4.119z M34.732,2.322H12.522
			c-1.023,0-1.851,0.829-1.851,1.851v1.851c0,1.022,0.828,1.851,1.851,1.851h22.211c1.022,0,1.851-0.829,1.851-1.851V4.173
			C36.583,3.152,35.755,2.322,34.732,2.322z M2.986,19.851l4.264-2.665c0.867-0.542,0.828-1.352-0.086-1.809L3.072,13.33
			c-0.914-0.457-1.656,0.001-1.656,1.023v4.627C1.417,20.003,2.119,20.392,2.986,19.851z M34.732,13.428H12.522
			c-1.023,0-1.851,0.829-1.851,1.851v1.851c0,1.022,0.828,1.851,1.851,1.851h22.211c1.022,0,1.851-0.829,1.851-1.851v-1.851
			C36.583,14.257,35.755,13.428,34.732,13.428z M7.251,26.329l-4.264-2.665c-0.867-0.542-1.57-0.153-1.57,0.869v5.553
			c0,1.022,0.702,1.411,1.57,0.87l4.264-2.665C8.118,27.75,8.118,26.871,7.251,26.329z M34.732,24.533H12.522
			c-1.023,0-1.851,0.829-1.851,1.851v1.851c0,1.022,0.828,1.851,1.851,1.851h22.211c1.022,0,1.851-0.829,1.851-1.851v-1.851
			C36.583,25.362,35.755,24.533,34.732,24.533z"/>
	</g>
</g>
</svg>
