<?xml version="1.0" encoding="utf-8"?>
<!-- Generator: Adobe Illustrator 17.0.0, SVG Export Plug-In . SVG Version: 6.00 Build 0)  -->
<!DOCTYPE svg PUBLIC "-//W3C//DTD SVG 1.1//EN" "http://www.w3.org/Graphics/SVG/1.1/DTD/svg11.dtd">
<svg version="1.1" id="Capa_1" xmlns="http://www.w3.org/2000/svg" xmlns:xlink="http://www.w3.org/1999/xlink" x="0px" y="0px"
	 width="600px" height="600px" viewBox="0 0 600 600" enable-background="new 0 0 600 600" xml:space="preserve">
<path fill="none" stroke="#008BBA" stroke-width="15" stroke-miterlimit="10" d="M584.156,273.632L324.783,64.117l-14.395-11.954
	c-5.429-4.512-13.306-4.512-18.735,0l-74.846,62.156V88.04c0-8.099-6.568-14.666-14.665-14.666H146.23
	c-8.098,0-14.665,6.568-14.665,14.666v96.814l-113.733,92.79c-6.273,5.12-7.213,14.359-2.091,20.636
	c2.901,3.556,7.118,5.396,11.371,5.396c3.26,0,6.54-1.082,9.269-3.301l44.367-36.195v242.809c0,8.099,6.566,14.666,14.665,14.666
	h156.725c8.101,0,14.668-6.568,14.668-14.666V393.197h68.435v113.791c0,8.099,6.568,14.666,14.668,14.666h156.725
	c8.101,0,14.668-6.568,14.668-14.666V260.567l44.422,35.884c2.714,2.19,5.975,3.258,9.211,3.258c4.275,0,8.523-1.862,11.416-5.45
	C591.441,287.956,590.458,278.721,584.156,273.632z"/>
</svg>
