<?xml version="1.0" encoding="utf-8"?>
<!-- Generator: Adobe Illustrator 17.0.0, SVG Export Plug-In . SVG Version: 6.00 Build 0)  -->
<!DOCTYPE svg PUBLIC "-//W3C//DTD SVG 1.1//EN" "http://www.w3.org/Graphics/SVG/1.1/DTD/svg11.dtd">
<svg version="1.1" id="Capa_1" xmlns="http://www.w3.org/2000/svg" xmlns:xlink="http://www.w3.org/1999/xlink" x="0px" y="0px"
	 width="44.237px" height="44.237px" viewBox="0 0 44.237 44.237" enable-background="new 0 0 44.237 44.237" xml:space="preserve">
<g>
	<path fill="#008BBA" d="M22.119,44.237C9.922,44.237,0,34.315,0,22.119S9.922,0,22.119,0s22.119,9.922,22.119,22.119
		S34.315,44.237,22.119,44.237z M22.119,1.5C10.75,1.5,1.5,10.75,1.5,22.119s9.25,20.619,20.619,20.619s20.619-9.25,20.619-20.619
		S33.488,1.5,22.119,1.5z"/>
	<g>
		<line fill="#008BBA" x1="31.432" y1="22.455" x2="12.805" y2="22.455"/>
		<path fill="#008BBA" d="M31.432,23.205H12.805c-0.414,0-0.75-0.336-0.75-0.75s0.336-0.75,0.75-0.75h18.627
			c0.414,0,0.75,0.336,0.75,0.75S31.846,23.205,31.432,23.205z"/>
	</g>
	<g>
		<line fill="#008BBA" x1="31.432" y1="16.419" x2="12.805" y2="16.419"/>
		<path fill="#008BBA" d="M31.432,17.169H12.805c-0.414,0-0.75-0.336-0.75-0.75s0.336-0.75,0.75-0.75h18.627
			c0.414,0,0.75,0.336,0.75,0.75S31.846,17.169,31.432,17.169z"/>
	</g>
	<g>
		<line fill="#008BBA" x1="12.805" y1="28.503" x2="31.432" y2="28.503"/>
		<path fill="#008BBA" d="M31.432,29.253H12.805c-0.414,0-0.75-0.336-0.75-0.75s0.336-0.75,0.75-0.75h18.627
			c0.414,0,0.75,0.336,0.75,0.75S31.846,29.253,31.432,29.253z"/>
	</g>
</g>
</svg>
