<?xml version="1.0" encoding="utf-8"?>
<!-- Generator: Adobe Illustrator 17.0.0, SVG Export Plug-In . SVG Version: 6.00 Build 0)  -->
<!DOCTYPE svg PUBLIC "-//W3C//DTD SVG 1.1//EN" "http://www.w3.org/Graphics/SVG/1.1/DTD/svg11.dtd">
<svg version="1.1" id="Capa_1" xmlns="http://www.w3.org/2000/svg" xmlns:xlink="http://www.w3.org/1999/xlink" x="0px" y="0px"
	 width="128.5px" height="128.5px" viewBox="0 0 128.5 128.5" enable-background="new 0 0 128.5 128.5" xml:space="preserve">
<path fill="none" stroke="#008BBA" stroke-width="3" stroke-miterlimit="10" d="M107.884,2.3H14.959
	C8.571,2.3,3.344,7.527,3.344,13.916v100.669c0,6.389,5.227,11.616,11.616,11.616h92.925c6.389,0,11.616-5.227,11.616-11.616V13.916
	C119.5,7.527,114.273,2.3,107.884,2.3z M104.012,110.713H18.831V17.788h85.181V110.713z M34.319,71.994h54.206v7.744H34.319V71.994z
	 M34.319,87.481h54.206v7.744H34.319V87.481z M42.063,37.147c0,6.415,5.2,11.616,11.616,11.616s11.616-5.2,11.616-11.616
	s-5.2-11.616-11.616-11.616S42.063,30.732,42.063,37.147z M61.422,48.763H45.934c-6.389,0-11.616,3.485-11.616,7.744v7.744h38.719
	v-7.744C73.037,52.247,67.81,48.763,61.422,48.763z"/>
</svg>
