<?xml version="1.0" encoding="utf-8"?>
<!-- Generator: Adobe Illustrator 17.0.0, SVG Export Plug-In . SVG Version: 6.00 Build 0)  -->
<!DOCTYPE svg PUBLIC "-//W3C//DTD SVG 1.1//EN" "http://www.w3.org/Graphics/SVG/1.1/DTD/svg11.dtd">
<svg version="1.1" id="Capa_1" xmlns="http://www.w3.org/2000/svg" xmlns:xlink="http://www.w3.org/1999/xlink" x="0px" y="0px"
	 width="30.69px" height="29.74px" viewBox="0 0 30.69 29.74" enable-background="new 0 0 30.69 29.74" xml:space="preserve">
<g>
	<ellipse fill="none" stroke="#008BBA" stroke-width="0.75" stroke-miterlimit="10" cx="6.568" cy="19.122" rx="1.836" ry="1.874"/>
	<path fill="none" stroke="#008BBA" stroke-width="0.75" stroke-miterlimit="10" d="M13.704,19.122c0,1.038,0.825,1.874,1.839,1.874
		c1.012,0,1.838-0.838,1.838-1.874c0-1.037-0.826-1.874-1.838-1.874C14.528,17.247,13.704,18.085,13.704,19.122z"/>
	<path fill="none" stroke="#008BBA" stroke-width="0.75" stroke-miterlimit="10" d="M22.684,18.887c0,1.032,0.826,1.873,1.84,1.873
		c1.014,0,1.838-0.842,1.838-1.873c0-1.038-0.825-1.879-1.838-1.879C23.509,17.008,22.684,17.849,22.684,18.887z"/>
	<path fill="none" stroke="#008BBA" stroke-width="0.75" stroke-miterlimit="10" d="M28.783,25.405v-2.012
		c-0.167-2.056-2.508-2.027-2.508-2.027h-3.686c-2.639,0.053-2.544,2.027-2.544,2.027v2.012h-0.243v-1.773
		c-0.167-2.056-2.507-2.029-2.507-2.029h-3.684c-2.641,0.053-2.547,2.029-2.547,2.029v1.773h-0.233v-1.773
		c-0.169-2.056-2.507-2.029-2.507-2.029H4.634c-2.639,0.053-2.543,2.029-2.543,2.029v1.773H0.48v2.695h29.877v-2.695H28.783z"/>
	<path fill="none" stroke="#008BBA" stroke-width="0.75" stroke-miterlimit="10" d="M15.019,5.793
		c-0.084-0.069-0.207-0.093-0.316-0.053s-0.177,0.133-0.177,0.237v4.253c0,0.105,0.071,0.199,0.177,0.238
		c0.109,0.039,0.233,0.018,0.316-0.053l2.414-2.129c0.113-0.101,0.113-0.261,0-0.36L15.019,5.793z"/>
	<path fill="none" stroke="#008BBA" stroke-width="0.75" stroke-miterlimit="10" d="M28.778,1.432H2.087v13.34h26.691V1.432z
		 M15.543,12.103c-2.164,0-3.918-1.793-3.918-4.001c0-2.207,1.755-4,3.918-4s3.918,1.793,3.918,4
		C19.462,10.31,17.706,12.103,15.543,12.103z"/>
</g>
</svg>
