<?xml version="1.0" encoding="utf-8"?>
<!-- Generator: Adobe Illustrator 17.0.0, SVG Export Plug-In . SVG Version: 6.00 Build 0)  -->
<!DOCTYPE svg PUBLIC "-//W3C//DTD SVG 1.1//EN" "http://www.w3.org/Graphics/SVG/1.1/DTD/svg11.dtd">
<svg version="1.1" id="Layer_1" xmlns="http://www.w3.org/2000/svg" xmlns:xlink="http://www.w3.org/1999/xlink" x="0px" y="0px"
	 width="512px" height="512px" viewBox="0 0 512 512" enable-background="new 0 0 512 512" xml:space="preserve">
<path fill="none" stroke="#008BBA" stroke-width="15" stroke-miterlimit="10" d="M341.636,40.506
	c-34.475,0-67.824,13.439-93.344,37.259c-25.518-23.819-58.867-37.259-93.344-37.259c-77.102,0-139.828,65.401-139.828,145.79
	c0,20.168,3.292,40.63,9.789,60.833c0.228,0.706,5.587,17.221,10.669,27.096c23.149,49.651,65.046,97.716,124.537,142.87
	c44.059,33.44,80.979,52.265,82.53,53.049c1.775,0.899,3.711,1.349,5.647,1.349s3.872-0.449,5.647-1.349
	c1.55-0.784,38.47-19.608,82.529-53.049c59.586-45.226,101.524-93.376,124.649-143.112c0.022-0.046,0.043-0.093,0.064-0.139
	c0.296-0.657,7.287-16.224,10.553-26.905c6.547-21.417,9.729-41.253,9.729-60.644C481.464,105.907,418.737,40.506,341.636,40.506z"
	/>
</svg>
