<?xml version="1.0" encoding="utf-8"?>
<!-- Generator: Adobe Illustrator 17.0.0, SVG Export Plug-In . SVG Version: 6.00 Build 0)  -->
<!DOCTYPE svg PUBLIC "-//W3C//DTD SVG 1.1//EN" "http://www.w3.org/Graphics/SVG/1.1/DTD/svg11.dtd">
<svg version="1.1" id="Layer_1" xmlns="http://www.w3.org/2000/svg" xmlns:xlink="http://www.w3.org/1999/xlink" x="0px" y="0px"
	 width="48px" height="48px" viewBox="0 0 48 48" enable-background="new 0 0 48 48" xml:space="preserve">
<g>
	<path fill="none" stroke="#F7F7F7" stroke-width="2" stroke-miterlimit="10" d="M33.569,7.533
		c-3.951-3.951-10.351-3.96-14.313-0.029C15.292,3.573,8.892,3.582,4.941,7.533c-3.96,3.96-3.96,10.383,0,14.343
		c0.193,0.193,9.592,9.546,13.053,12.991c0.698,0.695,1.827,0.695,2.524,0c3.461-3.445,12.859-12.797,13.052-12.991
		C37.53,17.915,37.53,11.493,33.569,7.533z"/>
	<path fill="none" stroke="#F7F7F7" stroke-width="2" stroke-miterlimit="10" d="M42.959,32.535h-3.331v-3.294
		c0-1.571-1.264-2.844-2.836-2.844s-2.836,1.273-2.836,2.844v3.294h-3.326c-1.57,0-2.844,1.29-2.844,2.861
		c0,1.571,1.274,2.861,2.844,2.861h3.326v3.311c0,1.57,1.264,2.844,2.836,2.844s2.836-1.274,2.836-2.844v-3.311h3.331
		c1.57,0,2.844-1.29,2.844-2.861C45.804,33.824,44.53,32.535,42.959,32.535z"/>
</g>
</svg>
